<svg width="64" height="64" viewBox="0 0 64 64" fill="none" xmlns="http://www.w3.org/2000/svg">
<g id="Group 1">
<circle id="Ellipse 1" cx="32" cy="32" r="31" fill="white" stroke="#1D398D" stroke-width="2"/>
<g id="Mark">
<path id="Shape" d="M45.3437 32.1185L31.3288 7.33325L17.334 32.1185C10.8331 44.7068 21.4158 56.5198 31.3288 56.6666C41.2618 56.5198 51.8446 44.7068 45.3437 32.1185ZM41.9482 44.9852C39.8657 49.0835 35.514 51.9549 31.3288 52.0038C27.1537 51.9549 22.8053 49.0835 20.7194 44.9852C19.5199 42.6219 18.5769 38.8586 20.906 34.3162L31.3288 15.8685L41.755 34.3087C44.0908 38.8586 43.1478 42.6219 41.9482 44.9852Z" fill="url(#paint0_linear_188_2)"/>
<path id="Shape_2" d="M41.9246 33.9664L31.3285 15.2363L20.7524 33.9664C15.8642 43.4311 23.8879 52.3012 31.3285 52.3201C38.7691 52.3389 46.8128 43.4311 41.9246 33.9664ZM39.4222 43.5139C37.8595 46.581 34.464 48.8126 31.3385 48.8202C28.213 48.8277 24.8176 46.581 23.2548 43.5139C21.9986 41.0376 22.0453 38.4409 23.3981 35.7878L31.3285 21.7318L39.2789 35.7878C40.6318 38.4409 40.6784 41.0376 39.4222 43.5139Z" fill="url(#paint1_linear_188_2)"/>
</g>
</g>
<defs>
<linearGradient id="paint0_linear_188_2" x1="396.013" y1="3176.53" x2="2831.8" y2="3176.53" gradientUnits="userSpaceOnUse">
<stop stop-color="#1D398D"/>
<stop offset="1" stop-color="#2E6BB4"/>
</linearGradient>
<linearGradient id="paint1_linear_188_2" x1="928.423" y1="2424.02" x2="1502.33" y2="2424.02" gradientUnits="userSpaceOnUse">
<stop stop-color="#2E6AB3"/>
<stop offset="1" stop-color="#1D378C"/>
</linearGradient>
</defs>
</svg>
